# xmcd CD database file
#
# Track frame offsets:
#	150
#	21253
#	33380
#
# Disc length: 580 seconds
#
# Revision: 0
# Processed by: cddbd v1.5.1PL0 Copyright (c) Steve Scherf et al.
# Submitted via: CDex 1.51
#
DISCID=1c024203
DTITLE=つじあやの - Shiny Day - 愛の真夏
DYEAR=2005
DGENRE=JPop
TTITLE0=Shiny Day
TTITLE1=愛の真夏
TTITLE2=いつも君のそばに
EXTD=YEAR: 2005
EXTT0=
EXTT1=
EXTT2=
PLAYORDER=
